<!-- icon666.com - MILLIONS vector ICONS FREE --><svg id="Capa_1" enable-background="new 0 0 512 512" viewBox="0 0 512 512" xmlns="http://www.w3.org/2000/svg"><path d="m329.401 512h-51.357l-40.751-42.109 29.947-89.84-31.09-31.089 23.98-47.962h-45l-30-60h-35.729v-68.787l-21.213-21.213h-60l-38.787-38.787v-51.213h48.541l53.497 26.749 17.962-17.962v-32.92l71.354-36.867h73.051c.071.145 35.516 72.298 35.595 72.459v48.541h-65.729l-7.5 15 7.5 15h14.517l15-15h27.426l27.038 27.038-20.923 41.847-51.116 51.115 15 15h68.787v30h30v81.213l-32.672 32.672-27.328 54.656z"/><path d="m413.671 151h-54.271v-41.459l-15-30v-41.422l55.334-38.119h44.006l38.859 79.015-41.985 41.985h-11.942z"/></svg>