<!-- icon666.com - MILLIONS vector ICONS FREE --><svg id="Layer_1" viewBox="0 0 512 512" xmlns="http://www.w3.org/2000/svg" data-name="Layer 1"><path d="m512 239.91c.027-12.26-6.306-21.126-17.835-24.966-2.056-.683-4.119-1.351-6.182-2.019-4.94-1.6-9.648-3.124-14.223-4.855.754-12.186 1.559-22.642 3.247-33.1a201.5 201.5 0 0 1 4.789-20.375c.952-3.512 1.936-7.144 2.829-10.8 3.992-16.356-1.244-26.035-17.508-32.366-6.509-2.534-13.127-5.256-18.818-7.609a11 11 0 1 0 -8.406 20.329c5.8 2.4 12.538 5.171 19.244 7.782a21.6 21.6 0 0 1 4.788 2.339 18.245 18.245 0 0 1 -.673 4.307c-.826 3.387-1.731 6.728-2.69 10.264a220.938 220.938 0 0 0 -5.274 22.623c-2.033 12.6-2.861 24.74-3.732 39.306-.436 7.317 5.612 14.379 11.465 16.726 6.07 2.438 12.229 4.432 18.186 6.359 2.006.65 4.011 1.3 6.009 1.964 2.334.778 2.791 1.179 2.784 4.042q-.037 17.065-.019 34.129c.007 21.28.015 43.284-.183 64.9a11.077 11.077 0 0 1 -1.758 5.547c-19.836 27.518-35.009 57.369-47.675 83.188-1.471 3-4.926 6.216-8.111 8.966-21.422 18.5-47.7 29.529-80.331 33.731a249.7 249.7 0 0 1 -58.348.847c-6.383-.683-13.9-5.42-21.173-10-1.785-1.124-3.624-2.283-5.508-3.423a6.18 6.18 0 0 1 .606-1.646c3.31-6.456 6.643-12.832 9.467-18.216a23.356 23.356 0 0 0 1.085-19.313 22.9 22.9 0 0 0 -13.561-13.273 14.161 14.161 0 0 1 -2.506-1.153c-16.616-10.1-35.094-12.166-56.492-6.32-6.457 1.764-13.164 3.37-19.65 4.924-5.8 1.389-11.8 2.825-17.722 4.4-3.01.8-3.513.147-3.815-.243-14.61-18.915-34.9-31.205-62.04-37.571-2.321-.545-3.282-.77-2.829-3.622 2.651-16.658-3.882-28.917-19.417-36.436-4.607-2.23-9.093-5.537-13.843-9.038-1.092-.8-2.181-1.607-3.274-2.4a5.568 5.568 0 0 1 -2.191-2.4c.044-.212.617-1.234 2.627-2.363 2.268-1.272 4.664-2.472 7.334-3.8a16.343 16.343 0 0 0 7.688-21.316c-.264-.6-.533-1.194-.8-1.789-1.632-3.631-3.321-7.385-3.271-9.64.051-2.4 1.911-6.218 3.709-9.915.416-.853.833-1.713 1.244-2.578a16.29 16.29 0 0 0 -5.664-20.618l-4.067-2.739c-6.012-4.061-12.239-8.255-18.512-12.255-3.539-2.257-3.344-3.434-3.2-4.292 4.31-26.043-4.17-46.929-25.2-62.078a2.768 2.768 0 0 1 -.586-.515c-.071-.332.095-2.107 2.183-5.02a71.633 71.633 0 0 0 9.6-19.311c1.405-4.2 2.552-4.174 4.847-4.136 6.542.118 11.651.018 15.757-.062 4.133-.081 8.4-.164 9.746.185 1.218 1.128 3.96 5.892 6.615 10.5 1.443 2.507 3.1 5.391 5.067 8.7 15.268 25.754 34.5 35.846 62.369 32.727 16.623-1.862 35.419-6.516 48.794-26.908 10.8-16.474 20.1-31.618 24.371-50.141 1.931-8.373 6.449-15.563 14.647-23.315 3.7-3.5 6.609-6.357 8.942-8.651 3.4-3.344 6.339-6.231 7.42-6.729.754-.348 4.124-.431 7.691-.518l.963-.025a11 11 0 0 0 -.551-21.992l-.951.023c-15.7.385-18.133 1.893-29.993 13.551-2.267 2.228-5.087 5-8.636 8.356-11.381 10.761-18.044 21.677-20.97 34.353-3.463 15.008-11.362 27.825-21.33 43.021-6.93 10.568-15.833 15.2-32.846 17.112-19.314 2.156-30.047-3.615-40.995-22.083-1.91-3.22-3.522-6.023-4.926-8.46-5.49-9.538-8.515-14.791-14.131-18.277-6.026-3.739-12.271-3.615-21.726-3.432-3.922.076-8.8.169-14.933.062-12.627-.223-21.892 6.573-26.1 19.147a50.1 50.1 0 0 1 -6.624 13.482c-9.541 13.309-8.165 27.858 3.425 36.205 14.261 10.275 19.307 22.807 16.361 40.637-1.011 6.112-.657 17.674 13.077 26.433 6.036 3.848 12.139 7.963 18.04 11.942l.053.035c-2.424 5.064-4.832 10.722-4.972 17.1-.128 5.88 1.735 11.169 3.788 15.946-1.178.611-2.338 1.234-3.511 1.892-8.308 4.663-13.345 12.047-13.819 20.258-.471 8.15 3.629 15.989 11.247 21.506 1.043.756 2.083 1.524 3.126 2.291 5.346 3.941 10.873 8.015 17.311 11.131 6.75 3.267 8.382 6.223 7.276 13.177-2.229 14 5.437 25.191 19.53 28.5 22.322 5.237 38.1 14.644 49.655 29.6 6.186 8.008 15.979 10.944 26.864 8.058 5.668-1.5 11.534-2.908 17.207-4.266 6.652-1.593 13.531-3.241 20.324-5.1 15.672-4.284 27.785-3.081 39.271 3.9a35.4 35.4 0 0 0 6.464 3.046.837.837 0 0 1 .52.549 1.343 1.343 0 0 1 -.061 1.123c-2.849 5.431-6.212 11.863-9.562 18.4-6 11.69-3.026 24.145 7.219 30.287 1.792 1.074 3.608 2.219 5.532 3.431 8.954 5.642 19.105 12.038 30.56 13.264a258.05 258.05 0 0 0 27.457 1.445 282.361 282.361 0 0 0 36.043-2.347c36.532-4.7 67.451-17.792 91.9-38.9 4.866-4.2 10.273-9.378 13.487-15.93 15.222-31.03 28.83-56.511 45.77-80.011a32.791 32.791 0 0 0 5.911-18.212c.2-21.718.19-43.775.183-65.106q-.015-17.037.01-34.074z"/><path d="m333.406 211.032c3.409 3.356 7.162 5.055 11.16 5.055h.146c4 0 7.752-1.7 11.16-5.055l.252-.256c30.757-32.325 88.008-92.494 56.193-153.029l-.042-.08c-13.041-24.332-38.894-39.717-67.469-40.152h-.167-.167c-28.575.435-54.428 15.82-67.511 40.232-31.815 60.534 25.436 120.7 56.193 153.029zm-37.012-142.972c9.245-17.249 27.719-28.175 48.245-28.544 20.511.368 38.973 11.278 48.225 28.506 21.642 41.247-12.451 84.77-48.224 122.879-35.786-38.121-69.891-81.658-48.246-122.841z"/><path d="m388.456 95.278a43.818 43.818 0 1 0 -43.817 43.822 43.867 43.867 0 0 0 43.817-43.822zm-43.817 21.822a21.818 21.818 0 1 1 21.817-21.817 21.842 21.842 0 0 1 -21.817 21.817z"/></svg>