<!-- icon666.com - MILLIONS vector ICONS FREE --><svg id="Capa_1" enable-background="new 0 0 512 512" viewBox="0 0 512 512" xmlns="http://www.w3.org/2000/svg"><g><g><g><path d="m268.416 482.707c-3.705 7.41-12.715 10.413-20.125 6.708l-40-20c-2.903-1.452-5.257-3.805-6.708-6.708l-10-20c-3.705-7.41-.702-16.42 6.708-20.125 7.41-3.705 16.42-.701 20.124 6.708l7.764 15.528 35.528 17.764c7.411 3.705 10.414 12.715 6.709 20.125z"/></g><g><path d="m296.679 478.479c-6.893-4.595-8.755-13.908-4.16-20.801l20-30c4.595-6.893 13.908-8.756 20.801-4.16 6.893 4.595 8.755 13.908 4.16 20.801l-20 30c-4.595 6.893-13.908 8.755-20.801 4.16z"/></g><g><path d="m254.393 426.605c-5.858-5.858-5.858-15.355 0-21.213l20-20c5.858-5.858 15.355-5.858 21.213 0 5.858 5.858 5.858 15.355 0 21.213l-20 20c-5.857 5.858-15.355 5.858-21.213 0z"/></g><g><path d="m314.393 376.605c-5.858-5.858-5.858-15.355 0-21.213l20-20c5.858-5.858 15.355-5.858 21.213 0 5.858 5.858 5.858 15.355 0 21.213l-20 20c-5.857 5.858-15.355 5.858-21.213 0z"/></g><g><path d="m391.584 442.707-7.222-14.443-24.106-8.035c-7.859-2.62-12.106-11.114-9.487-18.973 2.62-7.859 11.114-12.107 18.974-9.487l30 10c3.774 1.258 6.894 3.964 8.673 7.522l10 20c3.705 7.41.702 16.42-6.708 20.125-7.409 3.704-16.419.7-20.124-6.709z"/></g><g><path d="m400.257 330.229-30.001-10c-7.859-2.62-12.106-11.114-9.487-18.973 2.62-7.859 11.114-12.107 18.974-9.487l19.131 6.377 13.645-20.468c4.595-6.893 13.908-8.755 20.801-4.16h.001c6.893 4.595 8.756 13.908 4.16 20.801l-20 30c-3.752 5.628-10.807 8.049-17.224 5.91z"/></g></g><path d="m357.121 61.149c9.265 1.324 15.068 10.714 12.109 19.593l-3.419 10.257h39.189c1.579 0 3.148.25 4.65.739l92 30c6.173 2.013 10.35 7.768 10.35 14.261v40c0 10.12-9.815 17.336-19.474 14.317l-18.754-5.86-14.846 37.114c-2.277 5.695-7.793 9.429-13.927 9.429h-30c-5.269 0-10.151-2.764-12.862-7.283l-25.631-42.717h-16.506v20.458l17.48 26.221c3.967 5.949 3.183 13.871-1.874 18.927l-20 20c-2.812 2.813-6.628 4.393-10.606 4.393h-25v15c0 1.612-.26 3.214-.77 4.743l-10 30c-2.042 6.125-7.774 10.257-14.23 10.257h-19.188l-6.581 19.743c-2.042 6.125-7.774 10.257-14.23 10.257h-21.973l-15.547 23.321c-2.781 4.173-7.465 6.679-12.48 6.679h-40c-8.284 0-15-6.716-15-15v-55l-22.5-30h-7.501v25c0 3.978-1.58 7.794-4.394 10.607l-30 30c-2.812 2.813-6.628 4.393-10.606 4.393h-40c-5.016 0-9.699-2.507-12.48-6.679l-20-30c-1.643-2.464-2.52-5.359-2.52-8.321v-50c0-5.015 2.507-9.699 6.68-12.481l23.32-15.546v-35.759l-25.606-25.607c-2.814-2.813-4.394-6.628-4.394-10.607v-30c0-6.457 4.132-12.188 10.257-14.23l60-20c3.365-1.122 7.019-1.015 10.314.303l45.859 18.344 43.08-8.616 28.643-17.186-22.153-16.615c-3.777-2.833-6-7.279-6-12v-30c0-8.284 6.716-15 15-15h70c3.979 0 7.794 1.58 10.606 4.393l26.465 26.465z"/></g></svg>