<!-- icon666.com - MILLIONS vector ICONS FREE --><svg id="Capa_1" enable-background="new 0 0 512 512" viewBox="0 0 512 512" xmlns="http://www.w3.org/2000/svg"><path d="m322.213 481h-51.213v-41.459l-24.271-48.541h-5.729v60h-54.271l-24.839-49.678-17.005 17.005-53.885 26.944v35.729h-51.069l-39.931-38.642v-72.716l46.173-44.683 29.827 29.828 15-15v-30l37.888-37.888 67.112-10.067 48.094 7.214 5.464-27.32-6.063-20.209-14.533-7.267-32.962 32.963-46.612-46.612 19.9-79.601h50.499l30-30h51.213v60h5.729l24.271-48.541v-71.459h51.213l38.787 38.787v32.672l24.271 48.541h66.729v54.339l-50.575 24.873 19.575 19.575v29.855l31 30v51.358h-82.213l-23.787-23.787-23.787 23.787h-30l-17.962 17.962 30 60z"/><path d="m121 256h-51.213l-38.787-38.787v-42.426l60-60 30 30z"/></svg>