<!-- icon666.com - MILLIONS vector ICONS FREE --><svg id="Layer_1" enable-background="new 0 0 48 48" viewBox="0 0 48 48" xmlns="http://www.w3.org/2000/svg"><g><path d="m11.5 3h-3c-.55 0-1 .45-1 1v40c0 .55.45 1 1 1h3c.55 0 1-.45 1-1v-18.66c1.65.43 3.29.6 4.92.6 2.79 0 5.55-.48 8.25-.95 4.67-.81 9.08-1.58 13.5-.04.31.11.64.06.91-.13.26-.19.42-.49.42-.81v-18.01c0-.43-.27-.8-.67-.94-4.91-1.71-9.79-.86-14.5-.04-4.43.76-8.63 1.47-12.83.23v-1.25c0-.55-.45-1-1-1zm-1 3v18 19h-1v-38h1zm15.17.99c4.43-.77 8.63-1.5 12.83-.26v15.93c-4.46-1.15-8.88-.38-13.17.36-4.43.77-8.63 1.5-12.83.26v-15.93c4.46 1.15 8.88.38 13.17-.36z"/></g></svg>