<!-- icon666.com - MILLIONS vector ICONS FREE --><svg xmlns="http://www.w3.org/2000/svg" viewBox="0 0 512 512"><g id="OUTLINE"><path d="M144,189.76562V114.39844A24.01877,24.01877,0,0,0,129.74707,92.4668L106.8252,82.2793A32.03292,32.03292,0,0,0,120,56.40332V49.29785a32,32,0,0,0-64,0v7.10547a32.03429,32.03429,0,0,0,13.1748,25.876L46.25342,92.4668A24.01842,24.01842,0,0,0,32,114.39844v75.36718l24.50635,8.16895L64.69434,288h46.61132l8.188-90.06543ZM72,49.29785a16,16,0,0,1,32,0v7.10547a16.01485,16.01485,0,0,1-9.50146,14.62109L88,73.91309l-6.49805-2.88868A16.0145,16.0145,0,0,1,72,56.40332Zm32.50635,136.76758L96.69434,272H79.30566l-7.812-85.93457L48,178.23438V114.39844a8.00634,8.00634,0,0,1,4.751-7.31055L88,91.42188l35.24951,15.666A8.00669,8.00669,0,0,1,128,114.39844v63.83594Z"/><path d="M312,114.39844A24.01877,24.01877,0,0,0,297.74707,92.4668L274.8252,82.2793A32.03292,32.03292,0,0,0,288,56.40332V49.29785a32,32,0,0,0-64,0v7.10547a32.03429,32.03429,0,0,0,13.1748,25.876L214.25342,92.4668A24.01842,24.01842,0,0,0,200,114.39844v75.36718l24.50635,8.16895L232.69434,288h46.61132l8.188-90.06543L312,189.76562ZM240,49.29785a16,16,0,0,1,32,0v7.10547a16.01485,16.01485,0,0,1-9.50146,14.62109L256,73.91309,249.502,71.02441A16.0145,16.0145,0,0,1,240,56.40332Zm56,128.93653-23.49365,7.83105L264.69434,272H247.30566l-7.812-85.93457L216,178.23438V114.39844a8.00634,8.00634,0,0,1,4.751-7.31055L256,91.42188l35.24951,15.666A8.00669,8.00669,0,0,1,296,114.39844Z"/><path d="M465.74707,92.4668,442.8252,82.2793A32.03292,32.03292,0,0,0,456,56.40332V49.29785a32,32,0,0,0-64,0v7.10547a32.03429,32.03429,0,0,0,13.1748,25.876L382.25342,92.4668A24.01842,24.01842,0,0,0,368,114.39844v75.36718l24.50635,8.16895L400.69434,288h46.61132l8.188-90.06543L480,189.76562V114.39844A24.01877,24.01877,0,0,0,465.74707,92.4668ZM408,49.29785a16,16,0,0,1,32,0v7.10547a16.01485,16.01485,0,0,1-9.50146,14.62109L424,73.91309l-6.498-2.88868A16.0145,16.0145,0,0,1,408,56.40332Zm56,128.93653-23.49365,7.83105L432.69434,272H415.30566l-7.812-85.93457L384,178.23438V114.39844a8.00634,8.00634,0,0,1,4.751-7.31055L424,91.42188l35.24951,15.666A8.00669,8.00669,0,0,1,464,114.39844Z"/><path d="M209.74707,300.4668,186.8252,290.2793A32.03292,32.03292,0,0,0,200,264.40332v-7.10547a32,32,0,0,0-64,0v7.10547a32.03429,32.03429,0,0,0,13.1748,25.876l-22.92138,10.1875A24.01842,24.01842,0,0,0,112,322.39844v75.36718l24.50635,8.16895L144.69434,496h46.61132l8.188-90.06543L224,397.76562V322.39844A24.01877,24.01877,0,0,0,209.74707,300.4668ZM152,257.29785a16,16,0,0,1,32,0v7.10547a16.01485,16.01485,0,0,1-9.50146,14.62109L168,281.91309l-6.49805-2.88868A16.0145,16.0145,0,0,1,152,264.40332Zm56,128.93653-23.49365,7.83105L176.69434,480H159.30566l-7.812-85.93457L128,386.23438V322.39844a8.00634,8.00634,0,0,1,4.751-7.31055L168,299.42188l35.24951,15.666A8.00669,8.00669,0,0,1,208,322.39844Z"/><path d="M385.74707,300.4668,362.8252,290.2793A32.03292,32.03292,0,0,0,376,264.40332v-7.10547a32,32,0,0,0-64,0v7.10547a32.03429,32.03429,0,0,0,13.1748,25.876l-22.92138,10.1875A24.01842,24.01842,0,0,0,288,322.39844v75.36718l24.50635,8.16895L320.69434,496h46.61132l8.188-90.06543L400,397.76562V322.39844A24.01877,24.01877,0,0,0,385.74707,300.4668ZM328,257.29785a16,16,0,0,1,32,0v7.10547a16.01485,16.01485,0,0,1-9.50146,14.62109L344,281.91309l-6.498-2.88868A16.0145,16.0145,0,0,1,328,264.40332Zm56,128.93653-23.49365,7.83105L352.69434,480H335.30566l-7.812-85.93457L304,386.23438V322.39844a8.00634,8.00634,0,0,1,4.751-7.31055L344,299.42188l35.24951,15.666A8.00669,8.00669,0,0,1,384,322.39844Z"/></g></svg>